<?xml version="1.0" encoding="utf-8"?>
<!-- Generator: Adobe Illustrator 24.2.3, SVG Export Plug-In . SVG Version: 6.00 Build 0)  -->
<svg version="1.1" id="Camada_1" xmlns="http://www.w3.org/2000/svg" xmlns:xlink="http://www.w3.org/1999/xlink" x="0px" y="0px"
	 viewBox="0 0 441.2 441.2" style="enable-background:new 0 0 441.2 441.2;" xml:space="preserve">
<g transform="translate(0.000000,510.000000) scale(0.100000,-0.100000)">
	<path d="M1765.7,5097.8c-43-7-28-25,51-63c81-40,118-72,127-112c7-25,5-27-42-33c-82-10-104-34-52-55c71-30,201-194,185-235
		c-2-7-20-15-39-19c-34-6-87-40-77-48c3-3,37-26,77-52c69-45,120-102,157-174c15-30,15-33,1-39c-9-3-49-2-88,2
		c-169,17-170,11-24-128l118-112l4-113c6-127,4-131-63-113c-108,30-192,134-207,257l-6,59l-37,2c-42,2-78,36-88,81
		c-12,58-20,67-84,85c-82,24-110,52-110,113c0,44-1,46-22,39c-50-16-71-11-94,23c-13,18-28,58-35,88l-12,55l-67-7
		c-81-8-83-5-108,104c-22,93-43,132-73,132c-11,0-50-16-88-35c-96-50-129-48-177,11c-37,45-39,46-84,40c-89-12-142-37-196-91
		s-69-91-62-150l3-29l96,3c110,3,109,4,134-84c9-33,24-68,32-77c25-28,60-23,78,11c12,24,24,31,59,36c63,10,102-13,116-68
		c38-141,57-156,140-113c90,47,140,30,149-49c7-56,33-81,98-93c32-5,47-15,65-41c13-19,61-64,108-101c60-46,93-81,112-116
		c15-27,33-48,40-47s24,5,38,8s31,1,39-4c17-11,33-121,19-136c-5-5-26-9-48-9c-32,1-54,12-109,54c-57,43-76,52-113,54
		c-63,2-95,27-109,81c-6,25-15,48-20,51c-10,6-51-16-92-49l-29-22l-18,22c-10,12-21,39-25,60c-9,50-31,83-55,83c-11,0-42-20-70-45
		c-71-63-101-62-135,4c-13,27-29,53-35,56c-6,4-44-5-85-19c-42-14-82-26-89-26c-8,0-22,21-31,50c-9,27-26,57-38,65
		c-50,35-95,8-142-84c-14-29-37-57-50-63c-21-9-33-4-107,46c-98,67-138,76-188,45c-32-20-33-22-16-35c11-7,24-15,30-17
		c7-3-2-29-23-68c-119-225-115-217-116-279c0-32,3-61,6-64c11-11,55,11,119,58c99,73,156,72,205-3c27-41,54-58,64-43
		c14,22,132,65,154,56c7-2,21-18,32-34c36-54,65-47,65,15c0,27,5,32,58,53c32,12,62,22,68,22s23-14,40-31c31-34,97-68,130-69
		c11,0,31,11,44,25s29,25,36,25c16,0,124-73,153-104c33-35,55-33,144,14c67,35,83,40,144,40c81,0,128-20,160-69c23-33,29-83,17-127
		c-5-18-15-23-57-27c-29-3-78-11-110-18l-59-14l-27,34c-34,42-53,37-69-17c-15-49-32-64-69-60c-21,2-29,9-31,28c-6,60-12,70-38,70
		c-20,0-28-9-44-45l-19-45h-75h-74l-14,42c-8,23-19,43-25,45s-36-29-66-69c-76-101-130-129-209-108c-50,14-58,6-58-63
		c0-40-5-54-29-77c-26-26-32-28-62-20c-19,6-55,10-81,10c-51,0-51-1-49-60c0-19-10-32-46-55c-128-81-193-278-139-419l19-49l18,35
		c23,45,80,95,138,122c35,16,66,21,131,21h85l20,39c29,58,63,79,130,80h58l33,73c27,61,37,73,57,73c13,0,32-7,43-15
		c38-28,54-19,54,30c0,87,51,145,127,145c24,0,58-7,74-16l31-15l54,60c63,69,159,125,175,100c5-8,9-48,9-89c0-103-14-122-84-118
		c-41,2-50,0-47-12c20-84,24-141,12-179c-21-70-68-86-193-66l-48,8v-101c0-98-1-102-26-119c-19-12-55-18-136-21l-110-5l6-31
		c18-94,19-156,2-182c-17-25-21-26-104-24c-48,1-93,2-101,1c-10-1-12-13-7-55c7-50,5-55-19-74c-14-11-48-26-76-32c-28-7-53-19-56-26
		c-10-26,8-85,35-116c28-30,28-30,84-19c85,18,101,10,132-63c30-70,79-124,115-128c26-3,24-8,78,166c17,57,20,60,62,72
		c83,24,127,94,102,165c-9,27-8,35,6,52c34,37,93,60,144,55l47-5l26,99c32,124,61,183,110,222c36,30,42,31,132,31c81,0,95,2,100,18
		c8,26-4,56-53,129c-39,57-46,75-50,130c-16,190,162,270,264,120c29-44,51-146,68-316c8-78,22-220,32-316c40-392,9-748-87-998
		c-34-87-51-106-204-227c-194-153-263-249-273-379c-6-73-2-77,48-50c28,14,79,98,79,131c0,7,21,34,48,60c26,27,66,72,89,100
		c38,46,86,73,101,58c4-4-31-79-77-168c-81-159-110-247-81-247c7,0,33,11,56,25c34,20,57,48,105,125c33,55,72,109,85,119
		c14,11,39,57,60,112c63,163,97,215,165,249c54,28,95,26,115-5c21-31,14-69-27-155c-22-47-29-73-25-96c8-40-6-80-66-185
		c-53-94-67-144-48-179c9-17,17-20,38-15c47,11,80,53,108,139c28,82,73,144,95,130c18-11,37-65,44-129c4-33,11-75,17-92
		c8-29,14-33,44-33c45,0,51,26,34,145c-24,179,15,179,134-1c28-43,63-87,78-98c26-19,81-26,94-13c15,14-59,137-131,217
		c-157,178-201,247-212,339c-11,95,13,122,76,85c28-16,44-38,102-137c23-41,46-65,72-78c68-35,153-194,189-352c11-51,24-95,27-98
		s21-2,39,3c46,13,54,39,35,132c-9,42-13,80-9,83c9,10,63-45,106-107c48-69,85-105,130-124c30-12,38-12,54-1c27,20,14,58-39,110
		c-25,24-45,49-45,57c0,7-19,29-42,48c-24,19-79,74-122,123c-44,49-98,103-120,119c-23,16-59,53-82,81c-22,29-100,122-173,207
		c-202,235-212,251-254,410c-78,292-102,465-94,684c5,144,20,229,56,319l11,28l30-21c16-12,52-25,80-29c62-10,81-27,205-181
		c51-63,102-124,114-135l22-19l32,38c29,33,36,37,72,34c48-4,73-35,105-133c35-105,84-126,135-59c28,37,67,44,121,24l26-10l-7-78
		c-7-75-35-152-55-152s-9-20,20-35c41-21,57-19,138,20c50,24,74,31,77,22c2-6,11-37,21-67c9-30,25-67,35-82c18-24,23-26,77-21
		c55,5,60,4,80-21c11-15,28-48,37-74c47-132,60-143,112-102c30,24,76,26,93,5c7-8,20-30,29-48c21-43,42-40,65,8c23,46,25,130,7,218
		c-11,52-16,59-51,77c-55,28-69,75-48,162c11,41,12,65,6,69s-47,14-92,24c-91,20-150,46-160,71c-3,9-3,45,0,80c6,61,6,64-24,93
		c-35,36-65,39-133,15c-43-16-48-16-83,1c-43,21-74,70-106,170c-13,39-27,75-31,81c-11,13,16,98,36,114c42,35,85-32,85-132
		c0-65,1-67,34-87c42-26,57-26,89-1c49,39,77,21,151-92c38-58,49-67,61-47c12,18,27,4,44-41c12-32,24-47,44-54c14-5,30-7,33-3
		c19,18,16,116-7,210l-23,100l22,15c28,18,28,28-3,73c-22,31-33,37-76,42c-28,4-75,17-105,31c-53,24-54,26-54,66
		c0,111-77,162-207,136c-36-6-43-5-43,8c0,22-63,82-94,90c-15,4-41,0-62-9c-57-24-105-20-129,11c-18,23-30,27-96,31
		c-40,3-81,9-90,14c-10,5-19,27-23,54c-5,30-14,48-27,56c-21,11-18,12-133-50c-75-40-126-42-155-5c-24,31-36,83-27,120
		c10,39,58,82,101,90c37,7,41,5,79-40c23-25,46-46,52-46s27,18,47,40c39,43,75,52,98,24c8-9,28-42,44-73c17-30,42-62,57-70
		c26-15,29-13,133,57c165,112,183,110,187-26l3-87l30,3c17,2,51,13,76,24c30,13,63,18,95,16c49-3,49-3,76-60c25-52,31-58,58-58
		c17,0,47,9,67,20c21,11,43,20,50,20c20,0,43-56,60-143c23-124,35-144,91-152c104-15,166-65,213-172c10-24,21-43,23-43
		c12,0,36,62,36,93c0,19-9,65-21,102c-20,67-22,149-5,201c7,19-2,27-76,67c-107,58-138,89-138,134c0,25,8,43,30,65
		c17,16,30,32,30,34c0,3-17,12-37,21c-26,11-84,17-188,20c-82,3-155,10-161,14c-6,5-17,31-24,57c-26,104-40,132-66,132
		c-13,0-63-20-111-46l-87-45l-40,48c-60,73-125,133-141,133c-8,0-26-22-40-49c-37-73-83-78-164-17c-44,33-85,33-124,0
		c-53-45-212-114-262-114c-18,0-35,46-35,95c0,52,31,95,91,125c49,25,152,27,210,3c42-16,42-16,65,10c12,14,27,49,33,77
		c24,109,59,135,118,86c82-68,104-64,146,27c64,138,131,144,217,18c49-73,88-109,94-90c52,146,71,169,142,169c40,0,43-2,54-35
		c13-38,59-79,101-90c25-6,26-4,32,46c6,45,28,89,46,89c3,0,16-18,29-40c13-23,54-77,93-122c38-44,76-90,84-101l15-21l27,20
		c39,29,57,71,56,130c0,49-31,160-60,217c-13,25-12,30,7,54c29,37,27,81-6,93c-22,9-35,5-80-21c-61-35-85-34-131,5
		c-16,14-41,28-56,31c-22,6-32,1-59-29c-28-32-37-36-79-36c-62,0-99,30-129,106c-23,56-23,56-59,50c-20-3-51-6-68-6
		c-30,0-35-5-67-67c-75-149-156-161-174-25c-5,34-12,65-16,69c-14,14-88-74-128-153c-41-79-43-81-91-94c-26-7-49-11-51-9
		s-13,24-25,49c-11,25-34,61-50,80c-24,28-32,32-43,22c-20-16-41-68-73-174c-20-68-34-96-61-123c-42-42-52-43-60-7
		c-19,85-27,103-50,118c-24,16-26,16-53-10c-29-28-49-81-75-206c-21-96-45-136-99-160c-57-26-63-25-91,17c-37,53-52,132-35,169
		c15,32,51,43,74,24c46-38,62,44,20,101c-97,135-99,173-16,317c54,93,72,161,52,192c-9,12-17,11-63-9c-29-13-64-26-77-29
		c-21-4-23-2-16,14c21,48,54,194,54,240c2,113-65,205-87,122c-4-18-15-34-23-36c-8-1-58,23-112,53
		C1948.7,5078.8,1848.7,5108.8,1765.7,5097.8z M2254.7,3541.8c63-74,55-229-15-291c-34-31-126-33-175-4c-107,63-118,256-18,313
		c20,11,48,14,106,12C2223.7,3567.8,2234.7,3564.8,2254.7,3541.8z M2636.7,3198.8c16-5,22-14,22-33c0-39,32-121,48-121
		c7,0,67-18,132-40c94-32,134-40,189-40c70,0,71,0,143-56c81-63,101-85,92-108c-6-16-81-56-105-56c-30,0-70,55-77,106l-7,49l-195,6
		c-264,8-377,38-455,119c-34,36-28,77,21,125C2490.7,3196.8,2569.7,3216.8,2636.7,3198.8z"/>
</g>
</svg>
