<svg xmlns="http://www.w3.org/2000/svg" viewBox="0 0 360 360.00003">
  <defs>
    <style>
      .a {
        fill: #1d1d1b;
      }
    </style>
  </defs>
  <g>
    <rect class="a" x="2.0715" y="158.17229" width="355.85743" height="43.65519" transform="translate(179.9999 -74.55862) rotate(44.99998)"/>
    <rect class="a" x="2.07108" y="158.1726" width="355.85743" height="43.65519" transform="translate(-74.55864 180) rotate(-45.00002)"/>
    <circle class="a" cx="180.00021" cy="179.99989" r="93.92697"/>
    <path class="a" d="M221.62489,36.41205C258.30564-.26872,302.342-15.70358,339.02283,20.97717s21.24584,80.71707-15.43491,117.39784"/>
    <path class="a" d="M138.37517,323.58788c-36.68075,36.68077-80.71706,52.11574-117.39784,15.435S-.26861,258.3057,36.41214,221.62492"/>
    <path class="a" d="M36.41194,138.37539C-.26884,101.69464-15.70352,57.658,20.97723,20.97727S101.69412-.26839,138.3749,36.41236"/>
    <path class="a" d="M323.58776,221.62511c36.68078,36.68075,52.11592,80.71688,15.43517,117.39766s-80.71735,21.24611-117.39812-15.43464"/>
  </g>
</svg>
