<?xml version="1.0" encoding="utf-8"?>
<!-- Svg Vector Icons : http://www.onlinewebfonts.com/icon -->
<!DOCTYPE svg PUBLIC "-//W3C//DTD SVG 1.1//EN" "http://www.w3.org/Graphics/SVG/1.1/DTD/svg11.dtd">
<svg version="1.1" xmlns="http://www.w3.org/2000/svg" xmlns:xlink="http://www.w3.org/1999/xlink" x="0px" y="0px" viewBox="0 0 1000 1000" enable-background="new 0 0 1000 1000" xml:space="preserve">
<metadata> Svg Vector Icons : http://www.onlinewebfonts.com/icon </metadata>
<g><g transform="translate(0.000000,511.000000) scale(0.100000,-0.100000)"><path d="M2545.1,112.7L100-4124.7l2449-5.8c1348.5-1.9,3553.4-1.9,4901.9,0l2449,5.8L7454.8,112.7C6110.2,2443.5,5005.8,4350,5000,4352C4994.2,4352,3889.8,2443.5,2545.1,112.7z M4688-1551.7c-253.8-724.6-995.9-1577.1-1474.5-1693.4c-294.5-69.8-668.4,79.4-871.9,344.9c-139.5,186-178.2,306.1-180.2,548.3c0,186,3.9,213.1,56.2,319.7c69.8,141.4,191.8,261.6,337.1,333.3c94.9,46.5,133.7,54.2,275.1,54.2c193.8,0,279-36.8,395.3-164.7c87.2-96.9,127.9-186,127.9-280.9c0-215,186-344.9,350.7-248c85.2,50.4,120.1,143.4,104.6,275.1c-32.9,255.7-125.9,447.6-308.1,618.1c-292.6,277.1-716.9,333.3-1143.1,149.2c-23.3-9.7-32.9-7.8-29.1,3.9c3.9,11.6,548.3,957.1,1209,2102.2l1201.3,2079l5.8-2133.2l3.9-2135.1L4688-1551.7z M6480.3,781.1C7137.1-358.1,7673.8-1292,7673.8-1294c0-1.9-71.7,19.4-158.9,50.4c-193.8,63.9-445.6,73.6-618,23.3c-391.4-116.3-660.7-435.9-707.2-839c-15.5-135.6,21.3-228.6,106.6-279c149.2-87.2,315.8,5.8,339.1,191.8c21.3,166.6,48.4,232.5,129.8,325.5c122.1,139.5,207.3,176.3,404.9,176.3c141.4,0,180.2-7.8,275.1-54.2c141.5-69.8,269.3-195.7,337.1-337.1c108.5-218.9,79.4-554.1-69.7-786.6c-209.3-331.3-627.8-511.5-957.1-412.7c-412.7,124-1005.6,751.8-1319.5,1396.9c-201.5,412.7-184.1,158.9-184.1,2594.3c0,1222.6,7.7,2123.5,17.4,2113.8C5279,2858.1,5823.4,1918.4,6480.3,781.1z M1776-2778.1c27.1-79.4,87.2-207.3,135.6-284.8c108.5-174.4,348.8-403,523.1-496l133.7-69.8l-792.4-1.9c-691.7,0-788.6,3.9-778.9,29.1c5.8,15.5,164.7,296.4,354.6,623.9l344.9,596.7l15.5-125.9C1719.8-2574.7,1748.8-2696.7,1776-2778.1z M8660-2995.1c182.1-317.7,337.1-590.9,342.9-606.4c9.7-25.2-81.4-29.1-778.9-29.1h-792.5l125.9,69.7c279,156.9,480.5,366.2,610.3,637.5c71.7,149.2,125.9,344.9,125.9,465c0,44.6,7.8,67.8,17.4,58.1C8320.9-2411.9,8477.9-2679.3,8660-2995.1z M4748.1-3039.7v-590.9h-623.9h-625.8l147.3,83.3c356.5,203.4,765.3,604.5,1034.6,1017.2c29.1,44.6,56.2,81.4,60.1,81.4C4744.2-2448.7,4748.1-2714.2,4748.1-3039.7z M5579.3-2875c255.8-308.1,527-542.5,804.1-689.8l118.2-65.9h-623.9h-625.8v594.8v594.8l83.3-118.2C5379.7-2625,5490.2-2766.5,5579.3-2875z"/></g></g>
</svg>