<?xml version="1.0" standalone="no"?>
<!DOCTYPE svg PUBLIC "-//W3C//DTD SVG 20010904//EN"
 "http://www.w3.org/TR/2001/REC-SVG-20010904/DTD/svg10.dtd">
<svg version="1.0" xmlns="http://www.w3.org/2000/svg"
 width="300.000000pt" height="269.000000pt" viewBox="0 0 300.000000 269.000000"
 preserveAspectRatio="xMidYMid meet">
<metadata>
Created by potrace 1.10, written by Peter Selinger 2001-2011
</metadata>
<g transform="translate(0.000000,269.000000) scale(0.100000,-0.100000)"
fill="#000000" stroke="none">
<path d="M1416 2496 c-73 -184 -76 -195 -67 -237 16 -66 13 -217 -4 -284 -36
-137 -113 -260 -220 -348 -231 -191 -519 -191 -710 -2 -175 174 -191 414 -38
570 90 90 208 125 315 93 86 -26 178 -144 178 -230 0 -96 -77 -178 -169 -178
-49 0 -82 26 -119 95 -15 27 -42 60 -61 72 -94 63 -213 -16 -198 -130 8 -61
62 -160 113 -207 25 -23 71 -54 102 -68 51 -24 69 -27 167 -27 105 0 113 2
180 34 290 142 342 521 105 762 -112 113 -221 159 -380 159 -167 0 -292 -52
-416 -175 -128 -127 -181 -243 -191 -419 -5 -83 -2 -116 16 -185 41 -162 135
-315 249 -405 l49 -38 -92 -92 c-99 -98 -147 -172 -192 -297 -23 -65 -27 -90
-27 -204 -1 -112 2 -140 23 -203 95 -290 398 -480 680 -427 109 21 194 67 276
150 131 132 178 281 145 456 -32 171 -184 316 -365 348 -118 21 -247 -20 -334
-107 -90 -90 -132 -212 -97 -281 56 -108 222 -87 252 33 10 43 68 86 115 86
46 0 72 -11 112 -49 81 -75 73 -204 -19 -295 -110 -111 -290 -98 -417 29 -208
207 -93 567 218 685 80 30 225 33 305 6 230 -78 395 -256 446 -482 13 -62 15
-100 9 -188 -4 -61 -7 -120 -7 -131 0 -26 141 -385 152 -385 4 0 31 57 60 128
96 232 99 241 89 297 -13 81 -10 226 6 290 64 253 272 446 523 485 131 21 286
-25 389 -114 90 -78 163 -229 163 -335 0 -100 -61 -229 -136 -286 -19 -14 -59
-38 -90 -52 -48 -22 -66 -25 -128 -21 -82 6 -116 21 -173 78 -77 77 -94 193
-38 266 37 49 82 74 131 74 54 0 87 -26 122 -97 31 -63 74 -93 132 -93 45 0
95 30 116 71 51 99 -58 289 -204 357 -51 24 -69 27 -167 27 -104 0 -114 -2
-176 -32 -100 -49 -162 -110 -209 -206 -35 -70 -42 -95 -47 -167 -3 -51 -1
-107 6 -140 37 -172 187 -336 360 -391 84 -27 221 -29 306 -4 165 47 326 179
397 325 53 109 62 151 62 285 1 105 -2 130 -27 205 -48 146 -128 265 -240 355
l-48 39 43 35 c113 92 198 215 245 356 24 71 27 95 27 210 0 108 -4 141 -23
195 -68 197 -244 364 -437 415 -124 33 -290 15 -399 -43 -27 -15 -79 -56 -116
-92 -161 -158 -204 -377 -111 -569 37 -78 121 -160 207 -202 66 -32 74 -34
180 -34 105 0 114 2 177 33 76 37 134 97 174 178 49 101 39 183 -28 224 -72
44 -162 13 -196 -68 -61 -141 -204 -137 -277 7 -45 89 20 232 131 287 62 30
184 26 250 -8 144 -76 223 -230 197 -384 -44 -255 -298 -437 -551 -395 -42 7
-98 22 -125 32 -135 53 -272 180 -337 312 -61 126 -74 189 -65 332 4 66 7 132
6 146 0 38 -137 379 -152 379 -4 0 -41 -87 -83 -194z m122 -908 c37 -54 153
-170 210 -212 l44 -31 -28 -20 c-74 -53 -178 -158 -241 -241 l-22 -29 -21 25
c-84 105 -183 204 -253 253 -17 12 -15 15 25 44 54 39 180 166 213 216 14 20
30 37 35 37 5 0 22 -19 38 -42z"/>
</g>
</svg>
