<?xml version="1.0" standalone="no"?>
<!DOCTYPE svg PUBLIC "-//W3C//DTD SVG 20010904//EN"
 "http://www.w3.org/TR/2001/REC-SVG-20010904/DTD/svg10.dtd">
<svg version="1.0" xmlns="http://www.w3.org/2000/svg"
 width="178.000000pt" height="203.000000pt" viewBox="0 0 178.000000 203.000000"
 preserveAspectRatio="xMidYMid meet">
<metadata>
Created by potrace 1.10, written by Peter Selinger 2001-2011
</metadata>
<g transform="translate(0.000000,203.000000) scale(0.100000,-0.100000)"
fill="#000000" stroke="none">
<path d="M875 1853 c-201 -47 -343 -166 -401 -335 -38 -111 -28 -267 23 -375
42 -88 149 -195 241 -241 75 -37 77 -37 196 -37 117 0 123 1 189 33 73 36 127
85 175 157 37 57 60 202 43 277 -28 122 -99 218 -198 267 -138 69 -305 35
-381 -77 -63 -94 -69 -146 -27 -262 40 -113 104 -160 219 -160 54 0 69 4 94
25 90 75 94 214 9 287 -40 34 -101 39 -117 9 -16 -31 -12 -48 20 -84 34 -39
36 -53 14 -85 -24 -34 -72 -27 -97 15 -26 46 -33 132 -14 170 40 76 111 101
194 68 100 -40 179 -233 139 -339 -24 -63 -95 -133 -167 -165 -137 -62 -369
87 -424 272 -33 112 -11 194 82 302 55 65 130 110 213 129 90 21 123 20 211
-9 92 -31 175 -94 236 -180 58 -82 78 -149 78 -260 0 -105 -13 -143 -83 -246
-26 -39 -51 -78 -57 -87 -5 -9 -40 -62 -76 -117 -37 -55 -87 -131 -112 -170
-48 -73 -115 -174 -142 -213 -9 -12 -20 -22 -25 -22 -5 0 -53 66 -106 148 -53
81 -103 156 -110 167 -26 38 -168 251 -287 433 -86 131 -125 181 -135 177 -32
-12 -131 -91 -132 -104 0 -8 16 -39 36 -70 61 -94 129 -195 137 -206 4 -5 23
-32 41 -60 63 -96 278 -420 297 -447 11 -15 64 -95 120 -178 63 -94 107 -150
117 -150 11 0 43 38 82 98 36 53 68 99 71 102 3 3 14 21 25 40 10 19 39 64 64
100 25 36 68 100 95 143 57 88 51 79 165 253 135 205 149 241 157 409 5 108 4
127 -17 190 -28 84 -64 141 -139 218 -89 93 -207 166 -299 186 -52 11 -197 13
-237 4z"/>
</g>
</svg>
