<?xml version="1.0" standalone="no"?>
<!DOCTYPE svg PUBLIC "-//W3C//DTD SVG 20010904//EN"
 "http://www.w3.org/TR/2001/REC-SVG-20010904/DTD/svg10.dtd">
<svg version="1.0" xmlns="http://www.w3.org/2000/svg"
 width="280.000000pt" height="280.000000pt" viewBox="0 0 280.000000 280.000000"
 preserveAspectRatio="xMidYMid meet">
<metadata>
Created by potrace 1.10, written by Peter Selinger 2001-2011
</metadata>
<g transform="translate(0.000000,280.000000) scale(0.100000,-0.100000)"
fill="#000000" stroke="none">
<path d="M649 2282 c-222 -74 -309 -328 -176 -515 69 -97 175 -147 313 -147
l74 0 0 -220 0 -220 -73 0 c-136 0 -256 -56 -317 -148 -131 -198 -34 -455 194
-517 155 -42 314 34 388 184 18 37 24 67 26 149 l4 102 318 0 318 0 4 -102 c2
-82 8 -112 26 -149 74 -150 233 -226 388 -184 228 62 325 319 194 517 -61 92
-181 148 -317 148 l-73 0 0 220 0 220 74 0 c138 0 244 50 313 147 136 192 40
453 -191 519 -151 42 -315 -36 -388 -185 -18 -37 -24 -67 -26 -148 l-4 -103
-318 0 -318 0 -4 103 c-3 114 -20 161 -83 235 -78 91 -231 132 -346 94z m226
-36 c68 -31 115 -74 151 -138 l29 -53 3 -437 3 -438 -91 0 -90 0 0 401 c0 354
-2 405 -17 436 -21 46 -67 73 -122 73 -37 0 -49 -6 -82 -39 -35 -35 -39 -44
-39 -91 0 -47 4 -56 39 -91 39 -39 39 -39 120 -39 l81 0 0 -96 0 -96 -97 7
c-152 10 -239 61 -301 180 -23 43 -27 62 -27 135 0 73 4 92 27 135 84 160 255
222 413 151z m1310 -1 c61 -27 118 -83 153 -150 23 -43 27 -62 27 -135 0 -73
-4 -92 -27 -135 -62 -117 -151 -171 -300 -181 l-98 -6 0 96 0 96 81 0 c81 0
81 0 120 39 35 35 39 44 39 91 0 47 -4 56 -39 91 -33 33 -45 39 -82 39 -55 0
-101 -27 -122 -73 -15 -31 -17 -82 -17 -436 l0 -401 -90 0 -91 0 3 438 3 437
29 53 c83 149 258 207 411 137z m-1384 -191 c39 -20 59 -68 59 -144 l0 -60
-75 0 c-69 0 -77 2 -110 31 -31 27 -35 37 -35 79 0 42 4 52 35 79 40 35 79 40
126 15z m1324 -15 c31 -27 35 -37 35 -79 0 -42 -4 -52 -35 -79 -33 -29 -41
-31 -110 -31 l-75 0 0 59 c0 77 16 119 54 142 46 28 89 24 131 -12z m-405
-304 l0 -95 -320 0 -320 0 0 95 0 95 320 0 320 0 0 -95z m0 -335 l0 -220 -320
0 -320 0 0 220 0 220 320 0 320 0 0 -220z m460 -271 c68 -32 122 -84 158 -152
23 -45 27 -64 27 -137 0 -73 -4 -92 -27 -135 -123 -233 -439 -241 -563 -13
-26 47 -30 65 -33 156 l-4 102 91 0 91 0 0 -66 c0 -114 48 -174 139 -174 37 0
49 6 82 39 35 35 39 44 39 91 0 47 -4 56 -39 91 l-39 39 -702 0 -702 0 -39
-39 c-35 -35 -39 -44 -39 -91 0 -47 4 -56 39 -91 33 -33 45 -39 82 -39 91 0
139 60 139 174 l0 66 91 0 91 0 -4 -102 c-3 -91 -7 -109 -33 -156 -124 -228
-440 -220 -563 13 -23 43 -27 62 -27 135 0 73 4 92 27 137 48 90 129 154 221
173 23 4 357 7 742 7 l700 -2 55 -26z m-1320 -239 c0 -76 -20 -124 -59 -144
-47 -25 -86 -20 -126 15 -31 27 -35 37 -35 79 0 42 4 52 35 79 33 29 41 31
110 31 l75 0 0 -60z m1265 29 c31 -27 35 -37 35 -79 0 -42 -4 -52 -35 -79 -40
-35 -79 -40 -126 -15 -39 20 -59 68 -59 144 l0 60 75 0 c69 0 77 -2 110 -31z"/>
</g>
</svg>
