<?xml version="1.0" encoding="UTF-8"?>
<svg xmlns="http://www.w3.org/2000/svg" viewBox="0 0 360 360">
	<title>Nkyinkyim</title>
	<polygon points="360 51.429 360 0 0 0 0 51.429 0 64.286 0 115.714 308.571 115.714 308.571 128.571 0 128.571 0 180 0 192.857 0 244.286 308.571 244.286 308.571 257.143 0 257.143 0 308.571 0 360 51.429 360 51.429 308.571 102.857 308.571 102.857 360 154.286 360 154.286 308.571 205.714 308.571 205.714 360 257.143 360 257.143 308.571 308.571 308.571 308.571 360 360 360 360 308.571 360 257.143 360 244.286 360 192.857 51.429 192.857 51.429 180 360 180 360 128.571 360 115.714 360 64.286 51.429 64.286 51.429 51.429 360 51.429"/>
</svg>