<?xml version="1.0" standalone="no"?>
<!DOCTYPE svg PUBLIC "-//W3C//DTD SVG 20010904//EN"
 "http://www.w3.org/TR/2001/REC-SVG-20010904/DTD/svg10.dtd">
<svg version="1.0" xmlns="http://www.w3.org/2000/svg"
 width="280.000000pt" height="280.000000pt" viewBox="0 0 280.000000 280.000000"
 preserveAspectRatio="xMidYMid meet">
<metadata>
Created by potrace 1.10, written by Peter Selinger 2001-2011
</metadata>
<g transform="translate(0.000000,280.000000) scale(0.100000,-0.100000)"
fill="#000000" stroke="none">
<path d="M1020 1835 l0 -365 180 0 c99 0 180 -2 180 -5 0 -2 -12 -29 -26 -58
l-26 -53 26 -52 c14 -28 26 -54 26 -57 0 -3 -81 -5 -180 -5 l-180 0 2 -362 3
-363 70 0 70 0 3 288 2 287 90 0 90 0 0 -120 0 -120 -30 0 c-16 0 -30 -2 -30
-5 0 -10 125 -255 130 -255 5 0 130 245 130 255 0 3 -11 5 -25 5 l-25 0 0 120
0 120 85 0 85 0 2 -287 3 -288 73 -3 72 -3 0 366 0 365 -173 0 c-96 0 -176 3
-180 6 -3 4 5 29 20 57 l25 51 -26 53 c-14 29 -26 56 -26 58 0 3 81 5 180 5
l180 0 0 365 0 366 -72 -3 -73 -3 -3 -287 -2 -288 -85 0 -85 0 0 120 0 120 25
0 c14 0 25 2 25 5 0 10 -125 255 -130 255 -5 0 -130 -245 -130 -255 0 -3 14
-5 30 -5 l30 0 0 -120 0 -120 -90 0 -90 0 0 290 0 290 -75 0 -75 0 0 -365z"/>
</g>
</svg>
