<?xml version="1.0" standalone="no"?>
<!DOCTYPE svg PUBLIC "-//W3C//DTD SVG 20010904//EN"
 "http://www.w3.org/TR/2001/REC-SVG-20010904/DTD/svg10.dtd">
<svg version="1.0" xmlns="http://www.w3.org/2000/svg"
 width="510.000000pt" height="510.000000pt" viewBox="0 0 510.000000 510.000000"
 preserveAspectRatio="xMidYMid meet">
<metadata>
Created by potrace 1.14, written by Peter Selinger 2001-2017
</metadata>
<g transform="translate(0.000000,510.000000) scale(0.100000,-0.100000)"
fill="#000000" stroke="none">
<path d="M2425 4974 c-88 -46 -162 -136 -231 -279 -57 -120 -84 -233 -84 -358
0 -105 10 -158 72 -392 66 -245 56 -306 -53 -334 -68 -17 -230 -3 -373 33
-177 45 -337 152 -364 243 -19 63 -14 151 13 244 25 88 45 114 114 151 28 15
32 23 29 50 -4 40 -28 48 -75 23 -40 -22 -68 -14 -58 18 15 46 17 88 5 102
-28 34 -90 4 -90 -43 0 -22 -32 -62 -50 -62 -10 0 -23 13 -64 64 -18 24 -28
28 -49 22 -41 -10 -52 -41 -32 -87 l18 -38 -41 -47 c-127 -144 -133 -464 -13
-633 11 -15 74 -67 140 -114 65 -48 129 -99 141 -114 31 -40 22 -77 -44 -182
-72 -113 -139 -256 -166 -351 -65 -234 -65 -505 0 -760 74 -289 245 -589 412
-720 l47 -38 -67 -7 c-235 -23 -433 -119 -493 -237 -21 -41 -27 -120 -14 -179
10 -47 66 -156 108 -211 34 -44 35 -49 30 -107 -6 -68 5 -91 44 -91 19 0 28 9
43 45 26 60 58 63 83 6 20 -45 37 -54 72 -41 27 10 41 47 30 79 -10 31 21 38
49 12 16 -15 33 -21 52 -19 26 3 29 7 32 43 3 35 -3 47 -48 100 -88 105 -119
225 -78 304 42 82 144 111 394 111 297 0 476 -57 528 -169 19 -43 21 -61 19
-253 -2 -285 -24 -406 -103 -583 l-29 -65 57 29 c126 64 301 213 366 314 68
103 116 309 116 495 0 109 22 152 94 187 79 38 176 48 391 42 213 -6 268 -18
337 -70 54 -40 99 -127 101 -194 2 -53 -25 -114 -74 -171 -33 -37 -37 -63 -13
-87 20 -20 51 -11 77 21 10 13 28 24 39 24 17 0 19 -4 13 -28 -17 -67 -17 -89
0 -105 35 -35 90 -6 102 53 12 64 46 59 66 -10 14 -50 38 -70 65 -54 14 9 17
26 17 95 0 84 0 84 52 169 83 134 92 232 32 357 -61 128 -213 204 -437 220
l-95 6 36 18 c105 54 266 347 342 624 73 266 85 546 32 745 -34 126 -95 273
-154 371 -81 133 -82 137 -72 172 13 45 55 94 145 165 163 130 191 159 229
235 72 147 68 277 -11 434 l-46 93 31 35 c47 54 39 115 -16 115 -15 0 -31 -13
-49 -40 -47 -70 -106 -46 -124 50 -14 78 -50 100 -91 59 -21 -21 -22 -53 -4
-116 5 -15 0 -28 -15 -43 -19 -19 -29 -21 -77 -15 -61 7 -93 -9 -93 -50 0 -30
19 -45 57 -45 54 0 75 -31 107 -152 34 -125 31 -172 -11 -232 -38 -55 -148
-129 -247 -167 -137 -53 -238 -69 -441 -69 -212 0 -235 7 -273 80 -39 74 -24
189 54 435 75 233 50 410 -88 616 -75 113 -168 207 -238 242 -61 31 -102 34
-145 11z m-112 -1644 c34 -38 34 -61 3 -233 -106 -571 -92 -1115 40 -1546 31
-102 25 -124 -35 -141 -74 -20 -204 29 -235 88 -26 50 -27 94 -12 437 9 193
16 539 16 801 0 526 1 536 71 599 38 34 46 37 83 32 29 -4 49 -15 69 -37z
m617 -15 c35 -18 65 -54 79 -94 16 -48 14 -229 -5 -443 -24 -265 -22 -493 5
-723 29 -242 37 -436 22 -492 -29 -107 -154 -173 -242 -128 -46 24 -51 52 -34
179 63 461 71 935 20 1226 -7 41 -25 121 -39 177 -39 152 -32 238 22 286 41
37 113 42 172 12z m-1077 -25 c37 -30 42 -72 18 -164 -46 -174 -56 -290 -56
-651 0 -364 11 -504 58 -731 24 -115 22 -150 -9 -185 -70 -78 -219 84 -288
314 -92 300 -83 778 19 1132 42 145 111 255 180 290 39 19 47 19 78 -5z m1492
1 c139 -63 238 -328 267 -719 23 -308 -32 -678 -131 -888 -65 -136 -139 -197
-200 -165 -34 19 -35 66 -2 227 42 206 53 331 54 599 0 267 -16 422 -70 685
-48 235 -49 237 -28 260 22 25 58 25 110 1z"/>
</g>
</svg>
