<?xml version="1.0" standalone="no"?>
<!DOCTYPE svg PUBLIC "-//W3C//DTD SVG 20010904//EN"
 "http://www.w3.org/TR/2001/REC-SVG-20010904/DTD/svg10.dtd">
<svg version="1.0" xmlns="http://www.w3.org/2000/svg"
 width="510.000000pt" height="510.000000pt" viewBox="0 0 510.000000 510.000000"
 preserveAspectRatio="xMidYMid meet">
<metadata>
Created by potrace 1.14, written by Peter Selinger 2001-2017
</metadata>
<g transform="translate(0.000000,510.000000) scale(0.100000,-0.100000)"
fill="#000000" stroke="none">
<path d="M1870 4930 c-212 -56 -244 -69 -248 -104 -6 -53 7 -75 64 -112 47
-30 87 -77 73 -87 -2 -2 -38 -16 -79 -31 -439 -166 -729 -439 -859 -808 -26
-76 -75 -288 -67 -295 2 -2 55 54 119 125 339 372 628 540 952 554 l80 3 23
-65 c31 -85 73 -242 67 -249 -3 -2 -60 9 -128 25 -224 53 -325 37 -433 -71
-117 -116 -161 -305 -100 -423 34 -67 136 -134 224 -148 23 -4 42 -8 42 -11 0
-2 -9 -22 -20 -43 -60 -117 -21 -232 95 -286 130 -61 274 -4 307 122 10 36 14
41 29 33 18 -9 121 -126 137 -156 9 -15 12 -14 41 6 17 13 37 21 45 18 12 -5
84 -248 94 -319 l5 -38 -41 0 c-118 0 -374 -70 -527 -145 -131 -63 -135 -69
-190 -275 -110 -415 -265 -884 -341 -1031 -8 -16 -13 -29 -11 -29 2 0 41 22
86 50 346 207 850 237 1329 79 82 -27 97 -36 122 -71 42 -57 63 -130 58 -194
-6 -65 -29 -101 -84 -129 -77 -39 -333 -21 -597 41 -123 30 -392 118 -416 136
-22 18 23 -44 92 -127 231 -277 559 -427 927 -425 69 1 130 1 137 1 20 -1 52
-85 63 -166 19 -145 13 -135 81 -135 93 0 206 28 307 75 91 43 92 44 92 80 0
41 -8 58 -57 131 -19 29 -37 68 -39 90 l-5 39 88 55 c135 85 238 164 341 264
214 207 333 430 382 714 25 142 25 142 -3 106 -35 -43 -306 -317 -426 -429
-200 -187 -406 -321 -483 -313 -30 3 -36 9 -64 68 -42 87 -87 220 -124 365
-16 65 -29 120 -27 121 1 1 34 -8 72 -21 94 -32 232 -49 323 -41 133 12 230
65 275 149 32 62 30 174 -5 243 -50 96 -132 151 -281 189 l-89 22 35 22 c45
27 62 71 59 146 -5 118 -40 165 -137 185 -51 11 -59 10 -111 -14 -31 -14 -77
-41 -103 -61 l-48 -34 -65 44 c-36 24 -80 61 -97 82 -29 35 -33 36 -43 19 -5
-10 -23 -32 -38 -49 l-27 -31 -17 60 c-10 32 -35 118 -56 189 -35 116 -69 248
-70 267 0 13 61 19 285 28 285 11 329 23 426 116 77 75 160 187 219 297 47 86
332 768 325 776 -3 2 -13 -3 -23 -12 -29 -27 -143 -74 -228 -96 -337 -85 -931
-86 -1256 -1 -62 16 -79 25 -111 61 -44 50 -71 131 -61 184 8 44 48 73 142
105 139 46 236 53 667 46 257 -4 405 -3 415 3 12 9 5 19 -39 61 -140 132 -357
212 -653 241 -65 6 -226 9 -367 7 l-251 -3 -1 100 c0 106 -14 169 -39 172 -8
1 -80 -16 -160 -37z m570 -1150 c99 -21 132 -37 150 -70 13 -25 -23 -405 -56
-590 -6 -33 -8 -30 -41 65 -19 55 -61 192 -93 305 -33 113 -68 231 -79 264
l-21 58 23 -6 c12 -4 65 -15 117 -26z m68 -1635 c99 -342 197 -741 190 -771
-7 -30 -227 129 -263 190 -21 36 -23 50 -19 116 8 123 34 591 34 614 1 37 16
-1 58 -149z"/>
</g>
</svg>
