<?xml version="1.0" encoding="UTF-8" standalone="no"?>
<svg
   width="25.93in"
   height="24.32in"
   viewBox="0 0 2593 2432"
   version="1.1"
   id="svg1"
   sodipodi:docname="Onyakopon_Aniwa.svg"
   inkscape:version="1.3 (0e150ed6c4, 2023-07-21)"
   xmlns:inkscape="http://www.inkscape.org/namespaces/inkscape"
   xmlns:sodipodi="http://sodipodi.sourceforge.net/DTD/sodipodi-0.dtd"
   xmlns="http://www.w3.org/2000/svg"
   xmlns:svg="http://www.w3.org/2000/svg">
  <defs
     id="defs1" />
  <sodipodi:namedview
     id="namedview1"
     pagecolor="#505050"
     bordercolor="#eeeeee"
     borderopacity="1"
     inkscape:showpageshadow="0"
     inkscape:pageopacity="0"
     inkscape:pagecheckerboard="0"
     inkscape:deskcolor="#505050"
     inkscape:document-units="in"
     inkscape:zoom="0.14219548"
     inkscape:cx="780.61551"
     inkscape:cy="2591.5029"
     inkscape:window-width="1920"
     inkscape:window-height="1177"
     inkscape:window-x="-8"
     inkscape:window-y="-8"
     inkscape:window-maximized="1"
     inkscape:current-layer="svg1" />
  <path
     d="m 284,1478 c 0,0 -3.58,18 -3.58,18 -1.81,10.03 -4.4,30.11 -4.42,40 0,0 0,29 0,29 0,0 0.91,12 0.91,12 1.72,24.64 6.28,48.98 11.97,73 0,0 15.81,54 15.81,54 0,0 22.43,65 22.43,65 8.04,30.47 8.93,46.95 8.88,78 0,0 -1.85,20 -1.85,20 -6.75,56.55 -40.97,106.66 -92.15,132.25 -15.8,7.9 -37.23,14.54 -55,14.75 0,0 -12,0 -12,0 -26.51,-0.04 -55.35,-12.93 -77,-27.52 C 39.82,1947.27 8.98,1871.91 2.17,1804 0.09,1783.31 -0.24,1762.81 0,1742 c 0,0 0.96,-11 0.96,-11 1.13,-25.86 4.96,-51.6 10.04,-77 15.23,-76.16 44.45,-148.84 81.31,-217 13.72,-25.37 32.45,-57.03 48.36,-81 0,0 18,-27 18,-27 1.68,-2.53 7.5,-10.67 8.07,-13 0.71,-2.87 -1.08,-6.34 -2.14,-9 0,0 -7.18,-19 -7.18,-19 -7.8,-20.85 -13.05,-42.41 -18.29,-64 -6.44,-26.53 -9.67,-53.9 -12.3,-81 0,0 -1.92,-26 -1.92,-26 0,0 -0.95,-10 -0.95,-10 0,0 0,-13 0,-13 0,0 -0.96,-12 -0.96,-12 0,0 0,-44 0,-44 0,0 1,-16 1,-16 0,0 1.91,-31 1.91,-31 2.7,-39.31 8.68,-78.44 16.88,-117 10.28,-48.36 24.44,-96.09 42.81,-142 11.1,-27.76 22.94,-55.42 36.66,-82 C 391.1,322.78 736.91,104.48 1091,29.21 c 52.6,-11.18 111.45,-20.55 165,-24.3 0,0 43,-2.91 43,-2.91 0,0 17,-1 17,-1 0,0 31,0 31,0 0,0 16,-0.96 16,-0.96 0,0 11,0.96 11,0.96 0,0 25,0 25,0 0,0 21,1 21,1 0,0 25,1.91 25,1.91 33.84,2.33 67.58,6.64 101,12.67 132.42,23.87 259.8,74.3 364,161.01 31.05,25.84 59.74,54.35 85.59,85.41 6.96,8.36 25.98,31.03 29.41,40 -6.01,-2.2 -11.33,-5.82 -17,-8.74 0,0 -38,-18.95 -38,-18.95 -32.7,-15.01 -66.66,-27.61 -101,-38.29 -73.8,-22.93 -150.2,-36.75 -227,-44.19 0,0 -63,-3.83 -63,-3.83 0,0 -17,-1 -17,-1 0,0 -40,0 -40,0 0,0 -16,1 -16,1 0,0 -12,0 -12,0 0,0 -19,1 -19,1 0,0 -10,0.91 -10,0.91 0,0 -70,6.81 -70,6.81 -66.25,8.64 -132.17,22.42 -196,42.26 -29.32,9.11 -58.35,18.73 -87,29.83 -151.6,58.73 -291.48,146.75 -409,259.15 0,0 -29.99,29.04 -29.99,29.04 0,0 -9.05,10 -9.05,10 -49.41,51.66 -93.31,107.53 -132.96,167 -20.97,31.45 -40.11,63.87 -58.3,97 -43.81,79.79 -76.73,152.85 -93.7,243 0,0 53,-46.42 53,-46.42 46.84,-39.57 96.46,-76.07 148,-109.27 160.19,-103.19 344.12,-179.41 533,-208.73 34.9,-5.42 69.78,-10.21 105,-12.67 0,0 29,-1.91 29,-1.91 0,0 16,-1 16,-1 0,0 23,-1 23,-1 0,0 94,0 94,0 0,0 15,1 15,1 0,0 30,1 30,1 0,0 18,1 18,1 0,0 25,1.91 25,1.91 0,0 58,4.92 58,4.92 59.52,5.77 118.78,13.36 178,21.9 129.37,18.65 258.42,45.05 380,94.07 58.58,23.62 121.6,54.89 173,91.63 18.09,12.92 35.22,27.01 52,41.57 3.51,-12.14 7.85,-38.49 8,-51 0,0 1,-23 1,-23 0,0 -1,-18 -1,-18 0,0 -3.73,-34 -3.73,-34 -4.18,-29 -11.7,-59.1 -20.61,-87 -14.43,-45.13 -31.38,-76.99 -34.75,-126 0,0 -0.91,-10 -0.91,-10 -0.43,-36.79 4.89,-71.62 23.43,-104 20.1,-35.12 52.1,-62.52 90.57,-75.33 10.18,-3.39 24.29,-6.54 35,-6.67 29.91,-0.35 47.51,3.98 74,18.31 60.4,32.67 93.36,96.47 106.4,161.69 3,15.02 6.58,38.92 6.6,54 0,0 0,42 0,42 0,0 -4.28,47 -4.28,47 -10.67,79.19 -39.42,161.15 -75.98,232 -17.73,34.37 -37.65,67.24 -58.16,100 0,0 -19.91,30 -19.91,30 -1.66,2.49 -7.61,10.76 -8.15,13 -0.85,3.58 4.71,14.92 6.14,19 0,0 15.46,48 15.46,48 10.28,39.11 15.17,72.94 19.05,113 0,0 1.83,23 1.83,23 0,0 1,21 1,21 0,0 0,61 0,61 0,0 -1,17 -1,17 0,0 -0.91,14 -0.91,14 0,0 -2.93,34 -2.93,34 -6.06,56.68 -17.44,112.41 -33.88,167 -14.47,48.06 -33.6,95.13 -56.03,140 -95.33,190.65 -248.52,342.1 -429.25,452.81 -36.94,22.63 -75,44.05 -114,62.93 -61.62,29.83 -121.09,53.62 -186,75.26 -64.36,21.45 -135.09,38.65 -202,49.92 -39.76,6.69 -79.84,11.42 -120,14.17 0,0 -31,1.91 -31,1.91 0,0 -16,1 -16,1 0,0 -31,0 -31,0 0,0 -14,0.97 -14,0.97 0,0 -14,-0.97 -14,-0.97 0,0 -24,0 -24,0 0,0 -21,-1 -21,-1 0,0 -10,-0.91 -10,-0.91 0,0 -26,-1.92 -26,-1.92 -30.2,-2.89 -60.1,-6.35 -90,-11.75 -132.01,-23.81 -260.27,-74.79 -364,-161.34 -31.38,-26.19 -59.08,-53.67 -85.25,-85.08 -6.5,-7.8 -26.34,-31.99 -29.75,-40 5.58,1.76 13.6,6.77 19,9.69 0,0 30,15 30,15 33.81,15.53 68.45,29.23 104,40.29 66.78,20.75 140.46,35.75 210,43.18 27.51,2.95 55.32,5.8 83,5.84 0,0 17,1 17,1 0,0 41,0 41,0 0,0 16,-1 16,-1 0,0 12,0 12,0 0,0 18,-1 18,-1 0,0 10,-0.91 10,-0.91 0,0 70,-6.81 70,-6.81 60.11,-7.84 119.79,-19.85 178,-36.86 36.52,-10.66 72.51,-22.48 108,-36.23 165.42,-64.09 321.33,-166.97 443.96,-295.19 50.15,-52.43 94.81,-109.66 135.04,-170 42.42,-63.63 88.25,-146.85 116.2,-218 12.86,-32.71 30.16,-86.61 34.8,-121 -16.94,16.93 -38.46,34.61 -57,50.08 -43.05,35.92 -88.21,69.07 -135,99.92 -156.25,103.03 -333.54,177.15 -518,210.42 -42.66,7.7 -85.78,13.7 -129,16.67 0,0 -30,1.91 -30,1.91 0,0 -20,1 -20,1 0,0 -17,1 -17,1 0,0 -95,0 -95,0 0,0 -15,-1 -15,-1 0,0 -30,-1 -30,-1 0,0 -18,-1 -18,-1 0,0 -24,-1.91 -24,-1.91 0,0 -69,-5.92 -69,-5.92 -68.91,-6.89 -137.54,-16.12 -206,-26.75 C 710.21,1678.57 565.98,1644.24 438,1580.25 388.12,1555.3 323.28,1517.16 284,1478 Z m 735,-531 c 0,0 -52,17.58 -52,17.58 0,0 -84,33.57 -84,33.57 -106.26,45.61 -232.7,116.7 -327,183.43 -33.2,23.49 -65.63,47.75 -97,73.67 0,0 -22,18.62 -22,18.62 -2.73,2.37 -6.91,4.97 -5.77,9.13 0.71,2.6 7.02,10.5 8.98,13 0,0 23.37,28 23.37,28 35,40.39 87.48,76.87 134.42,102.31 75.96,41.17 157.99,65.66 242,84.11 60.65,13.33 122.28,21.58 184,27.75 0,0 66,5.83 66,5.83 0,0 9,0 9,0 0,0 15,1 15,1 0,0 15,1.04 15,1.04 0,0 14,0 14,0 0,0 12,0.96 12,0.96 0,0 69,0 69,0 0,0 17,-1 17,-1 0,0 36,-1.91 36,-1.91 61.08,-4.18 117.15,-12.52 177,-25.67 181.09,-39.77 350.12,-120.41 507,-217.61 53.33,-33.04 105.01,-69.22 154,-108.41 0,0 35,-28.82 35,-28.82 2.96,-2.5 11.54,-9.01 12.13,-12.58 0.55,-3.36 -4.75,-9.32 -6.76,-12 0,0 -22.95,-28 -22.95,-28 0,0 -16.42,-17 -16.42,-17 -31.49,-31.49 -67.27,-58.26 -106,-80.28 -83.83,-47.67 -175.04,-75.28 -269,-94.72 0,0 -70,-12.73 -70,-12.73 -40.9,-6.02 -81.9,-10.46 -123,-14.44 0,0 -38,-2.92 -38,-2.92 0,0 -25,-1.91 -25,-1.91 0,0 -33,-1 -33,-1 0,0 -17,-1 -17,-1 0,0 -30,0 -30,0 -4.54,0 -10.87,-0.64 -15,1 23.67,16.83 46.47,40.1 62.98,64 17.37,25.17 29.37,51.44 37.14,81 3.83,14.62 7.7,39.99 7.88,55 0.89,76.78 -25.28,147.28 -80,202 -11.44,11.44 -19.76,19.11 -33,28.57 -16.59,11.86 -35.1,21.61 -54,29.23 -23.91,9.64 -49.31,15.49 -75,17.29 0,0 -11,0.91 -11,0.91 0,0 -17,0 -17,0 0,0 -22,-1.85 -22,-1.85 -47.14,-5.63 -91.66,-23.97 -129,-53.36 -30.59,-24.08 -57.63,-54.86 -75.25,-89.79 -14.04,-27.84 -24.27,-54.88 -28.47,-86 -2.39,-17.74 -2.48,-32.21 -2.28,-50 0,0 1.85,-18 1.85,-18 3.91,-32.74 14.38,-60.87 29.41,-90 z m 1,-1 c 0,0 -1,0 -1,0 0,0 1,1 1,1 z m 203,26.14 c -16.27,2.5 -29.05,5.19 -44,12.67 -38.24,19.13 -69.93,63.57 -70,107.19 -0.03,21.92 1.66,35.49 10.43,56 17.38,40.67 63.05,77.46 108.57,78 24.25,0.28 41.97,-2.16 64,-13.25 13.75,-6.91 28.5,-18 38.41,-29.75 20.21,-23.96 29.95,-49.59 29.59,-81 -0.57,-48.45 -32.02,-96.76 -75,-118.25 -14.15,-7.07 -29.07,-11.73 -45,-11.61 z"
     id="Selection" />
</svg>
