<svg xmlns="http://www.w3.org/2000/svg" width="730.189" height="737.49" viewBox="0 0 193.196 195.128"><g stroke="currentColor"><path transform="scale(1.01122 .98865) rotate(45 69.88 -36.831)" fill="none" stroke-width="8.001" stroke-linecap="round" stroke-linejoin="round" d="M165.267 19.965h39.967v39.967h-39.967z"/><path d="M172.987 94.543c-39.2 9.262-21.12-6.595-69.547-3.401-22.985 1.515-49.144 1.072-63.878-3.402L20.285 97.81l19.544 10.294c35.38.266 78.222-9.869 102.122-2.791 17.873 5.293 29.4-6.306 31.036-10.77z" fill="currentColor" stroke-width=".265"/><path d="M46.743 79.802c-2.838-20.636 22.938-11.258 22.938 18.114s-30.886 43.896-24.828 18.928M147.053 113.688c-1.27 10.362-20.217 15.97-20.217-15.772s22.684-28.851 18.706-12.577" fill="none" stroke-width="8" stroke-linecap="round"/><g><path d="M98.83 175.042c-8.274-9.812-9.032-15.833-7.612-24.154 7.49-43.891 1.893-63.568-5.764-110.382L97.276 20.27l10.642 19.967c-9.747 46.672 3.987 71.707-8.988 114.627-2.136 7.067-.733 19.237-.1 20.177z" fill="currentColor" stroke-width=".265"/><path d="M116.951 46.996c20.593-2.787 10.026 22.98-18.693 22.98-28.718 0-43.505-23.744-21.183-22.224M83.938 148.05c-14.393-1.774-14.13-22.494 14.32-22.194 28.45.3 29.489 18.134 15.2 20.925" fill="none" stroke-width="8" stroke-linecap="round"/></g></g></svg>